<?xml version="1.0" encoding="utf-8"?>
<!-- Generator: Adobe Illustrator 23.0.1, SVG Export Plug-In . SVG Version: 6.00 Build 0)  -->
<svg version="1.1" id="Capa_1" xmlns="http://www.w3.org/2000/svg" xmlns:xlink="http://www.w3.org/1999/xlink" x="0px" y="0px"
	 viewBox="0 0 147.7 25" style="enable-background:new 0 0 147.7 25;" xml:space="preserve">
<style type="text/css">
	.st0{fill:#FFFFFF;}
</style>
<title>logo-bookmark-blanco</title>
<path class="st0" d="M37,6.3h5.2c0.7,0,1.4,0.2,2.1,0.5C44.9,7,45.4,7.5,45.8,8c0.7,1.1,0.7,2.4,0,3.5c-0.3,0.5-0.8,0.9-1.3,1.1v0.1
	c0.7,0.2,1.3,0.7,1.7,1.2c0.4,0.6,0.6,1.3,0.6,2c0,0.7-0.2,1.4-0.6,2c-0.4,0.6-0.9,1-1.6,1.3c-0.7,0.3-1.5,0.5-2.2,0.5H37V6.3z
	 M42,11.8c0.5,0,1-0.1,1.3-0.5c0.3-0.3,0.5-0.7,0.5-1.1c0-0.4-0.1-0.8-0.4-1.1c-0.3-0.3-0.8-0.5-1.3-0.4h-2.6v3.2L42,11.8z
	 M42.3,17.4c0.5,0,1-0.1,1.4-0.5c0.7-0.7,0.7-1.8,0-2.5c0,0,0,0,0,0c-0.4-0.3-1-0.5-1.5-0.5h-2.7v3.5L42.3,17.4z M55.3,20
	c-1.3,0-2.5-0.4-3.6-1c-1-0.6-1.9-1.5-2.5-2.5c-1.2-2.2-1.2-4.9,0-7.1c0.6-1.1,1.5-1.9,2.5-2.5c2.2-1.2,4.9-1.2,7.1,0
	c1,0.6,1.9,1.5,2.5,2.5c1.2,2.2,1.2,4.9,0,7.1c-0.6,1.1-1.5,1.9-2.5,2.5C57.7,19.6,56.5,19.9,55.3,20L55.3,20z M55.3,17.6
	c0.8,0,1.6-0.2,2.3-0.6c0.7-0.4,1.2-1,1.6-1.6c0.4-0.7,0.6-1.5,0.6-2.4c0-0.8-0.2-1.7-0.6-2.4c-0.4-0.7-0.9-1.2-1.6-1.6
	c-0.7-0.4-1.5-0.6-2.3-0.6c-0.8,0-1.6,0.2-2.3,0.6c-0.7,0.4-1.2,0.9-1.6,1.6c-0.4,0.7-0.6,1.5-0.6,2.4c0,0.8,0.2,1.7,0.6,2.4
	c0.4,0.7,0.9,1.2,1.6,1.6C53.7,17.4,54.5,17.6,55.3,17.6L55.3,17.6z M70.6,20c-1.3,0-2.5-0.3-3.6-1c-1-0.6-1.9-1.5-2.5-2.5
	c-0.6-1.1-0.9-2.3-0.9-3.5c0-1.2,0.3-2.5,0.9-3.5C65.1,8.4,66,7.5,67,6.9c2.2-1.2,4.9-1.2,7.1,0c1,0.6,1.9,1.5,2.5,2.5
	c0.6,1.1,1,2.3,0.9,3.6c0,1.2-0.3,2.5-0.9,3.5c-0.6,1-1.5,1.9-2.5,2.5C73.1,19.6,71.9,20,70.6,20z M70.6,17.6c0.8,0,1.6-0.2,2.3-0.6
	c0.7-0.4,1.2-0.9,1.6-1.6c0.4-0.7,0.6-1.5,0.6-2.4c0-0.8-0.2-1.7-0.6-2.4c-0.4-0.7-0.9-1.2-1.6-1.6c-1.4-0.8-3.1-0.8-4.5,0
	c-0.7,0.4-1.2,0.9-1.6,1.6c-0.4,0.7-0.6,1.6-0.6,2.4c0,0.8,0.2,1.7,0.6,2.4c0.4,0.7,0.9,1.2,1.6,1.6C69,17.4,69.8,17.6,70.6,17.6
	L70.6,17.6z M79.8,6.3h2.5V12h0.2l4.9-5.7h3v0.2L85.6,12l5.3,7.5v0.1h-3.1l-4-5.7l-1.5,1.8v3.9h-2.5V6.3z M93.8,6H97l3.5,9.4h0.2
	l3.6-9.4h3.3v13.4H105v-6.6l0.2-2.2H105l-3.4,8.8h-2l-3.4-8.8H96l0.2,2.2v6.6h-2.4L93.8,6L93.8,6z M114.6,6h2.9l5,13.4h-2.8
	l-1.1-3.2h-5.1l-1.1,3.2h-2.8L114.6,6z M117.8,13.9l-1.2-3.4l-0.5-1.6H116l-0.5,1.6l-1.2,3.4L117.8,13.9z M124.6,6h4.9
	c0.8,0,1.6,0.2,2.3,0.5c0.7,0.3,1.2,0.8,1.6,1.5c0.4,0.7,0.6,1.4,0.6,2.2c0,0.8-0.3,1.6-0.8,2.3c-0.5,0.7-1.2,1.2-2.1,1.5v0.1
	l3.6,5.1v0.1h-2.9l-3.4-5h-1.2v5h-2.5L124.6,6z M129.4,12c0.5,0,1-0.2,1.4-0.5c0.7-0.7,0.7-1.9,0-2.6c-0.4-0.4-0.9-0.6-1.4-0.6H127
	V12H129.4z M136.6,6h2.5v5.7h0.1l4.9-5.7h3v0.2l-4.8,5.5l5.3,7.5v0.1h-3.1l-4-5.7l-1.5,1.8v3.9h-2.5L136.6,6L136.6,6z"/>
<path class="st0" d="M12.5,0C5.6,0,0,5.6,0,12.5S5.6,25,12.5,25S25,19.4,25,12.5S19.4,0,12.5,0z M16.1,19l-3.5-3.4L9,19V9
	c0-1.1,0.9-2,2-2h3.1c1.1,0,2,0.9,2,2V19z"/>
</svg>
