<svg id="Capa_1" data-name="Capa 1" xmlns="http://www.w3.org/2000/svg" viewBox="0 0 147.7 25"><defs><style>.cls-1{fill:#fff;}.cls-2{fill:#5265e1;}</style></defs><title>logo-bookmark-footer</title><circle class="cls-1" cx="11.91" cy="12.1" r="9.83"/><path class="cls-1" d="M37,6.3h5.23a4.48,4.48,0,0,1,2.06.47A3.76,3.76,0,0,1,45.77,8a3.17,3.17,0,0,1-1.3,4.62v.15A3.52,3.52,0,0,1,46.18,14a3.13,3.13,0,0,1,.62,2A3.37,3.37,0,0,1,46.21,18a3.94,3.94,0,0,1-1.58,1.31,5.31,5.31,0,0,1-2.22.45H37Zm5,5.45a1.83,1.83,0,0,0,1.32-.46,1.51,1.51,0,0,0,.49-1.15A1.57,1.57,0,0,0,43.38,9a1.77,1.77,0,0,0-1.26-.45h-2.6v3.19Zm.28,5.62a2,2,0,0,0,1.43-.48,1.76,1.76,0,0,0,0-2.49h0a2.17,2.17,0,0,0-1.49-.48h-2.7v3.45Zm13,2.63a7,7,0,0,1-3.56-1,6.7,6.7,0,0,1-2.51-2.53,7.22,7.22,0,0,1,0-7.06,6.77,6.77,0,0,1,2.51-2.53,7.31,7.31,0,0,1,7.11,0,6.77,6.77,0,0,1,2.51,2.53,7.22,7.22,0,0,1,0,7.06A6.7,6.7,0,0,1,58.8,19a6.92,6.92,0,0,1-3.55.92Zm0-2.39A4.51,4.51,0,0,0,57.51,17a4.34,4.34,0,0,0,1.61-1.63A4.79,4.79,0,0,0,59.71,13a4.87,4.87,0,0,0-.59-2.39A4.29,4.29,0,0,0,57.51,9a4.48,4.48,0,0,0-2.26-.58A4.42,4.42,0,0,0,53,9a4.18,4.18,0,0,0-1.61,1.62A4.83,4.83,0,0,0,50.8,13a4.87,4.87,0,0,0,.59,2.39A4.29,4.29,0,0,0,53,17a4.54,4.54,0,0,0,2.25.57ZM70.6,20A7,7,0,0,1,67,19a6.77,6.77,0,0,1-2.51-2.53A6.91,6.91,0,0,1,63.62,13a7,7,0,0,1,.91-3.53A6.87,6.87,0,0,1,67,6.92a7.33,7.33,0,0,1,7.12,0,6.85,6.85,0,0,1,2.51,2.53,6.92,6.92,0,0,1,1,3.55,7,7,0,0,1-.91,3.53A6.76,6.76,0,0,1,74.16,19,7,7,0,0,1,70.6,20Zm0-2.39A4.51,4.51,0,0,0,72.86,17a4.2,4.2,0,0,0,1.61-1.63A4.79,4.79,0,0,0,75.06,13a4.87,4.87,0,0,0-.59-2.39A4,4,0,0,0,72.86,9a4.69,4.69,0,0,0-4.51,0,4.25,4.25,0,0,0-1.61,1.62A4.93,4.93,0,0,0,66.16,13a4.75,4.75,0,0,0,.58,2.39A4.29,4.29,0,0,0,68.35,17a4.54,4.54,0,0,0,2.25.57ZM79.83,6.3h2.52V12h.15l4.89-5.7h3v.15L85.6,12l5.34,7.55v.14H87.86l-4-5.69-1.51,1.77v3.92H79.83Zm14-.3H97l3.54,9.39h.15L104.27,6h3.26V19.37H105V12.78l.15-2.22H105l-3.39,8.81h-2l-3.42-8.81H96l.15,2.22v6.59H93.78V6Zm20.8,0h2.89l5,13.37h-2.78l-1.12-3.2h-5.11l-1.12,3.2h-2.78Zm3.19,7.86L116.6,10.5l-.49-1.61H116l-.48,1.61-1.2,3.36ZM124.55,6h4.88a4.92,4.92,0,0,1,2.32.54A4,4,0,0,1,133.33,8a4.27,4.27,0,0,1,.56,2.18,3.48,3.48,0,0,1-.82,2.29A4.56,4.56,0,0,1,131,14v.13l3.59,5.14v.15h-2.9l-3.45-5h-1.18v5h-2.52Zm4.86,6a2,2,0,0,0,1.4-.52,1.91,1.91,0,0,0,0-2.63,1.77,1.77,0,0,0-1.39-.55h-2.37V12Zm7.23-6h2.52v5.73h.15L144.2,6h3v.15l-4.84,5.53,5.34,7.54v.15h-3.08l-4-5.7-1.51,1.78v3.92h-2.52V6Z"/><path class="cls-2" d="M12.5,0A12.5,12.5,0,1,0,25,12.5,12.5,12.5,0,0,0,12.5,0Zm3.58,19-3.54-3.44L9,19V9a2,2,0,0,1,2-2h3.08a2,2,0,0,1,2,2Z"/></svg>